<svg xmlns="http://www.w3.org/2000/svg" viewBox="0 0 360 560" preserveAspectRatio="none">
  <defs>
    <linearGradient id="metal" x2="1" y2="1"><stop stop-color="#ddd2b2"/><stop offset=".24" stop-color="#a99a78"/><stop offset=".5" stop-color="#e3d9ba"/><stop offset=".76" stop-color="#968a6c"/><stop offset="1" stop-color="#c7bd9c"/></linearGradient>
    <linearGradient id="stone" x2=".7" y2="1"><stop stop-color="#656b61"/><stop offset=".52" stop-color="#444e48"/><stop offset="1" stop-color="#5a6359"/></linearGradient>
    <linearGradient id="jade" x2="1" y2="1"><stop stop-color="#8c9c8e"/><stop offset=".48" stop-color="#516d64"/><stop offset="1" stop-color="#3e574f"/></linearGradient>
    <g id="corner">
      <path d="M5 17 17 5H48L36 17 17 36 5 48Z" fill="url(#stone)" stroke="url(#metal)" stroke-width="2"/>
      <path d="M12 20 20 12H36L12 36Z" fill="url(#jade)" stroke="#c9bc96" stroke-width="1.3"/>
      <path d="m17 19 18-6-18 20Z" fill="none" stroke="#a8b2a0" stroke-width=".65" opacity=".75"/>
      <path d="m20 13 3 7 7 3-7 2-3 8-2-8-7-3 7-2Z" fill="url(#metal)" stroke="#8b7d60" stroke-width=".7"/>
      <path d="m20 13 0 10 10 0-7-3Z" fill="#e7dfc8" opacity=".8"/>
    </g>
  </defs>
  <path d="M16 1H344L359 16V544L344 559H16L1 544V16ZM28 17 17 28V532L28 543H332L343 532V28L332 17Z" fill="url(#stone)" fill-rule="evenodd"/>
  <path d="M16 2H344L358 16V544L344 558H16L2 544V16Z" fill="none" stroke="#867b62" stroke-width="2"/>
  <path d="M17 5H343L355 17V543L343 555H17L5 543V17Z" fill="none" stroke="url(#metal)" stroke-width="2.4"/>
  <path d="M22 10H338L350 22V538L338 550H22L10 538V22Z" fill="none" stroke="#303e37" stroke-width="2"/>
  <path d="M28 15H332L345 28V532L332 545H28L15 532V28Z" fill="none" stroke="url(#metal)" stroke-width="1.5"/>
  <path d="M31 19H329L341 31V529L329 541H31L19 529V31Z" fill="none" stroke="#ded6bd" stroke-width=".5" opacity=".7"/>
  <use href="#corner"/><use href="#corner" transform="translate(360 0) scale(-1 1)"/>
  <use href="#corner" transform="translate(0 560) scale(1 -1)"/><use href="#corner" transform="translate(360 560) scale(-1 -1)"/>
</svg>
